<?xml version="1.0" encoding="UTF-8"?>
<svg id="Layer_1" xmlns="http://www.w3.org/2000/svg" xmlns:xlink="http://www.w3.org/1999/xlink" version="1.1" viewBox="0 0 284.72 293.18">
  <!-- Generator: Adobe Illustrator 29.0.1, SVG Export Plug-In . SVG Version: 2.1.0 Build 192)  -->
  <defs>
    <style>
      .st0 {
        fill: url(#linear-gradient2);
      }

      .st1 {
        fill: url(#linear-gradient1);
      }

      .st2 {
        fill: url(#linear-gradient);
      }

      .st3 {
        fill: #016b93;
      }
    </style>
    <linearGradient id="linear-gradient" x1="260.8" y1="248.46" x2="56.53" y2="94.73" gradientUnits="userSpaceOnUse">
      <stop offset="0" stop-color="#269761"/>
      <stop offset="1" stop-color="#026c94"/>
    </linearGradient>
    <linearGradient id="linear-gradient1" x1="287.84" y1="212.53" x2="83.57" y2="58.81" xlink:href="#linear-gradient"/>
    <linearGradient id="linear-gradient2" x1="343.23" y1="138.93" x2="138.96" y2="-14.8" xlink:href="#linear-gradient"/>
  </defs>
  <path class="st3" d="M280.61,25.35c.43.32.75,2.49.12,3.48-2.43,3.82-9.32,8.31-12.75,11.85-38.78,39.89-72.33,80.33-105.74,124.76-17.6,23.4-34.56,50.64-53.19,72.81-4.74,5.65-10.64,7.48-16.46,1.62-18.59-24.22-36.8-48.97-58.93-70.11l23.02-19.87,4.24-1.43,39.18,45.84c52.32-62.54,110.33-120.6,176.58-168.43.88-.52,3.33-.96,3.93-.52Z"/>
  <g>
    <path class="st2" d="M276.63,143.82c-5.34-18.52-16.67-39.31-21.32-57.67-1.41-5.6.5-4.96,1.16-8.58,1.44-7.93-9.97-10.67-11.32-2.34-.47,2.87,2.47,4.61,2.45,7.47,0,1.81-7.96,31.53-8.89,32.97-.7,1.08-2.75,1.23-4.01,2.21-1.01.77-1.12,2.38-2.79,3.23-2.81,1.44-9.21-.19-9.27,4.21,2.76,1.03,8.54-1.13,10.38-.76,1.23.25,2.01,2.47,4.16,2.81,2.28.36,4.76-1.26,6.43-.57.95.39,2.71,2.95,4.1,3.95,7.69,5.52,16.35,10.92,22.92,17.57l-53.05-15.51c-.45-6.83,1.02-14.86-1.49-21.46-.48-1.28-.01-2.45-1.95-2.01-4.37,1.72-1.56,18.59-2.52,22.99l-13.98-4c-.81.81,2.75,19.16,3.3,22.19,1.21,6.66,5.91,22.02,5.74,27.37-.09,3.24-2.79,3.69-3.1,6-.4,2.94,1.99,4.36,1.86,5.76-.13,1.46-2.32,3.59-1.82,5.68-1.69,1.8-1.39.75-1.61-1.05-.71-5.93-.61-12.33-1.64-18.2-2.11-12.02-6.08-23.85-8.75-35.75l-3.05.44-9.94,35.06v17.5c-1.48.22-1.33-1.73-1.69-2.8-2.25-6.56-3.48-15.89-6.22-21.8-.53-1.15.49-1.81-2.08-1.4l-26.49,47.02c-2.21,1.91-5.15-.2-7.4,3.6-2.27,3.85.51,5.83-.58,8.34-.36.85-11.23,13.62-12,14.12-1.22.8-2.74.03-4.21.65-5.04,2.14-2.33,5.85-3.84,9.26-.77,1.73-5.91,6.51-7.46,8.54-2.48,3.23-5.45,6.73-7.05,10.46l-1.99-.5c-.6-3.99,4.51-18.03-.5-18.55-1.16-.12-2.28-.03-3.02,1.03-1.73,2.51-2.19,16.26-2.48,20.03l-25.97-15.06c2.06-3.74-.07-7.76.44-10.95,1.16-7.2,15.4-17.05,4.56-20.98l-8.55,14.97c-.71,1.73-2.42.08-2.44-.47-.12-2.57,9.1-18.93,6.96-21.51-2.13-.4-2.32,1-3.05,2.44-2.23,4.39-3.46,10.62-5.67,15.37-.66,1.4.6,2.73-2.26,2.18,0-8.95,2.93-20.36,2.66-28.93-.1-3.17-1.97-4.27-2.69-7.05-2.45-.55-2.14.81-2.56,2.65-2.3,10.08-1.56,23.48-2.82,33.9l-4.51,2.38c-3.53-8.35-11.74-13.84-15.59-21.94-2.66-5.63-19.32-57.24-18.55-60.3.24-.96,2.21-.86,2.85-2.37.97-2.26-.17-6.22,1.1-7.85,1.08-1.37,24.71-19.33,26.74-20.34,3.91-1.94,5.68-.03,8.08-.88,2.75-.96,4.11-5.07,4.98-5.28,1.51-.36,6.91.43,7.31.02v-3h-10c-.09-.81-.04-1.5.2-2.29,2.77-9,16.86-23.67,20.29-33.71,4.46-.77,9.16-4.56,6.33-9.27-3.3-5.5-7.6-.78-9.9-1.19-5.27-.95-16.56-9.39-22.8-10.66-.45-.72-.24-2.33.05-3.17,1.21-3.43,56.49-30.54,63.81-34.73l-1.51-2.98-61.45,33.58c-3.31,1.7-5.61-2.1-8.68-2.29-7.6-.49-9.62,9.71-4.53,14.47l-24.89,78.17c-7.11-1.49-12.32,6.89-7.98,12.63,1.74,2.31,5.45,1.67,6.89,4.1,7.96,18.06,10.78,41.27,19.31,58.69,2.96,6.07,15.87,19.17,16.72,22.37.44,1.68-2.12,5.1-1.91,8.74.37,6.31,5.18,11.37,11.57,11.58,4.48.16,8.12-3.58,11.48-2.64l26.76,16.33c11.39,4.14,29.69,5.12,40.24,9.76,3.93,1.72,4.32,6.88,9.74,7.33,5.85.48,5.71-3.56,7.76-5.79,3.53-3.81,33.78-7.98,41.21-10.81,9.09-3.46,19.97-13.61,29.26-17.84,2.1-.58,6.07,3.4,9.6,3.55,8.94.38,13.54-7.12,12.37-15.38-.29-2.06-2.22-3.66-1.78-5.8.84-4.12,13.95-16.4,16.6-21.48,7.91-15.18,11.9-40.62,18.56-57.45,2.33-5.9,2.64-2.04,5.19-3.7,6.97-4.53,2.78-13.94-4.52-14.63ZM47.66,64.69c1.04.2,18.45,8.06,19.38,8.73,2.08,1.47,2.19,5.51,4.31,7.41l-22.22,34.48-7.32-48.79c.68-1.16,4.22-2.14,5.85-1.83ZM38.62,67.34l6.41,48.02c-3.59,3.06-1.55,7.45-4.86,10.01l-28.53,20.95,26.98-78.98ZM200.63,132.34l9.77,3.23c1.1,1.29,4.57,21.89,5.1,25.39.58,3.82-.23,7.75.37,11.63.43,2.83,6.44,15.87,5.75,16.74-6.29-1.91-7.2-7.42-11.96-10.79l-9.03-46.2ZM168.64,173.34l9.95,36.92c-.94,1.29-28.1,7.44-30.94,7.67-1.19.1-2.59.46-3.01-1.15-.95-3.65,22.28-36.88,24-43.44ZM177.62,213.33l-15,30c-1.54.36-1.6-.24-2.43-1.06-4.81-4.84-8.92-11.29-14.04-15.95l-.09-5.07,31.56-7.92ZM134.97,283.41l-36.34-9.09,16.92-21.57c1.23-1.4,4.34-2.11,5.89-1.21,2.04,1.19,12.58,24.24,15.74,27.73l-2.21,4.14ZM145.54,275.73l-5.96,2.13-15.56-26.51c1.65-3.08.26-7.37.75-9.29.35-1.36,12.12-15.13,13.31-15.32,1.28-.2,4.82.8,6.1,1.54,1.59.92,11.11,12.07,13.06,14.43.85,1.03,3.15,3.54,2.98,4.66l-14.68,28.36ZM185.63,275.32l-35.49,8.03c.57-1.65-2.51-3.45-2.54-3.68-.25-1.63,13.03-28.89,14.63-29.27,1.99.18,3.58,1.56,4.94,2.89,3.92,3.85,9.81,10.33,13.43,14.57.78.9,5.74,6.81,5.03,7.46ZM186.62,270.32l-22.82-24.48,15.33-27.51c3.36,17.19,8.85,34.24,7.49,51.99ZM218.73,255.86l-26.09,15.47c1.03-21.65-6.98-41.98-8.05-63.46-.42-8.28-.92-23.1.13-30.95.7-5.35,4.32-12.95,5.41-18.6,5.15,15.07,4.1,32.74,8.47,47.54,2.98,10.1,20.22,35.62,20.57,39.93.08,1.07-.14,9.67-.44,10.07ZM204.03,203.36c-.7-3.57,1.6-8.64,3.38-11.74.62-1.08-.13-1.74,2.21-1.29l15,50c-6.64-9.63-18.37-25.58-20.59-36.97ZM212.63,189.34c11.77.11,12.52,9.07,13.87,18.62,1.32,9.31,1.48,18.98,2.12,28.36l-15.99-46.98ZM255.03,217.23c-5.83,5.78-10.67,15.36-16.08,20.87-2.78,2.83-3.94.95-4.35-2.23-2.21-17.01-.72-30.46-6.26-47.75-1.69-5.28-5.39-11.36-6.48-16.52-1.18-5.58-.53-12.84-1.37-18.64-.83-5.65-2.55-11.1-3.85-16.62l53.96,15.03c.8,3.69-1.67,5.24-3.96,7.47-4.28,4.18-32.55,24.93-33,27.01l1.49,2.46,38.49-29.97-18.59,58.89ZM245.56,124.9c-1.91-2.66.03-6.79-3.96-8.15,3.1-11.08,5.89-22.22,8.33-33.46.36-1.65.25-2.41,1.69-.96l22,62.99-28.06-20.42Z"/>
    <path class="st1" d="M110.3,79.5c-14.49,6.69-31.81,7.11-39.17,23.83-3.01,6.84-4.24,16.98-4.54,24.46-.14,3.31-.54,13.11.56,15.52.25.57,3.9,5.01,5,3.04l.62-10.38,1.5-1.5c28.98-3.16,10.31,10.65,6.37,24.86,2.13,2.41,7.71-12.92,9.98-13,1.15,4.82-5.22,18.93-4.51,22.11.32,1.44,2.72,4.76,4.55,3.42,1.79-1.29,3.34-12.22,3.99-15.04.35-1.55-.67-1.73,1.98-1.49l5.01,27c1.37,1.45,5.83-4.43,4.93-6.38l-7.93-36.62,15.75,10.23c-.57,2.51,2.03,5.65,2.02,7.09-.01,2.26-3.04,6.51-3.78,9.2-.22.81-1.58,3.68.5,3.46,1.97-.21,4.45-9.43,6.03-10.95,1.65-1.59,4.41-1.24,5.98-3.01,2.33-3.85-1.16-7.29-1.17-8.53-.02-1.67,8.46-13.24,8.71-16.48,6.95,2.76,16.55-1.62,18.47-8.98.77-2.92-.4-8.79.42-9.51.68-.59,15.18-7.9,16.05-8.11,2.34-.57,8.56,4.17,10.61-3.38,1.55-5.7-6.62-7.32-10.57-6.5-2.53-4.15-19.8-15.93-20.08-19.08-.28-3.12,5.68-7.47,8.04-9.45.48,7.45,3.67,11.88,9.69,15.82,3.23,2.11,21.04,9.72,23.6,9.04,1.99-.54,3.1-2.88,2.71-4.84-7.13-2.5-22.88-6.66-27.66-12.34-10.72-12.71,10.36-24.59,6.22-37.74-.48-1.52-2.33-2.64-2.57-4.51-.26-2.13,1.1-4.04,1.02-5.93-1.21-27.93-39.46-33.56-49.39-10.39-2.84,6.63-1.85,10.92-2.66,17.34-.18,1.42-1.63,2.58-1.9,4.1-2.02,11.41,7.23,16.05,8.71,25.19,1.81,11.16-4.14,14.3-13.09,18.43ZM91.03,92.23c13.65-6.15,36.41-7.57,38.61-26.89,1.49-.39.76,1.02,1.36,1.55,2.67,2.34,7.26,4.85,5.15,9.42-1.59,3.43-19.37,14.12-22.54,18.55-5.1-2.3-7.77,1.81-9.43,2.08-3.08.49-10.71-3.19-14.55-2.62-.4-2.56.22-1.55,1.4-2.09ZM124.63,36.85c.23-1.12,13.87-5.68,16-3.52v33l-16-29.48ZM140.16,81.32c-.14,3.44-1.53,20.62-3.02,22.02l-11,4.96c-3.3-1.43-11.91-5.61-11.56-9.42.32-3.43,20.85-17.1,24.56-20.53,1.93,1.25,1.07,1.6,1.02,2.97ZM103.19,100.27c2.58,3.35-12.43,13.87-13.55,13.06l-5.01-16.99,18.56,3.93ZM72.64,128.32c.15-10.5,1.45-21.74,8.49-29.99l6.37,18.31-14.86,11.68ZM74.64,131.32l10.08-8.4,4.9-2.59,1.96,7.54c-2.34,7.47-11.31,2.15-16.94,3.45ZM93.77,127.19l-2.22-10.21c3.99-1.72,9.89-9.73,13.09-11.14.7-.31,8.84-1.37,9.37-1.27,1.23.23,8,6,10.17,6.78l-.66,9.87c-10.09,1.76-19.63,10.99-29.75,5.97ZM122.43,145.14c-.29.2-6.54,1.83-6.89,1.75-1.17-.25-14.47-10.03-14.79-11.24-.61-2.28.68-2.58,2.16-3.54,5.76-3.74,16.18-5.55,22.62-8.71l4.08,6.4c-1.44,2.01-6.49,14.85-7.18,15.34ZM145.83,118.95c-3.64,14.41-23.41,2.18-13.92-7.34,5.39-5.4,15.9-.53,13.92,7.34ZM162.51,46.75c-.59.95-2.23,1.32-2.55,1.9-3.69,6.86-4.08,16.61-13.33,19.67l16.99-31.99c-.18,3.42.79,7.35-1.11,10.42ZM160.62,15.33c.96.82,3.16,14.82,1.54,17.05-1.17,2.05-11.71-3.74-14.5-3.09-.83-5.32,5.08-8.11,8.5-10.97.91-.75,2.24-4.88,4.46-2.99ZM143.63,6.33c5.27-.38,10.87,1.08,13.92,5.64.25,1.45-11.15,12.14-13.92,11.36V6.33ZM143.63,33.33c5.52-2.45,10.78,1.01,16.02,2.52-4.21,10.41-9.41,21.45-16.02,30.48v-33ZM144.6,78.8c1.54-1.12,1.54-.11,2.53.52,3.3,2.11,7.02,5.77,10.08,8.43,2.55,2.21,4.95,4.77,7.4,7.14,1.96,1.89,5.39,2.39.99,6.91-.17.18-1.03.67-2.26,1.31-.15.08-.31.16-.48.25-1.16.61-2.57,1.32-4.01,2.02-.31.15-.62.31-.94.46-.46.22-.92.45-1.37.66-.45.22-.9.43-1.34.64-.66.31-1.29.6-1.85.85-.38.18-.74.34-1.07.49-.17.07-.33.14-.48.2-.3.13-.57.25-.81.34-.46.18-.78.29-.89.29-2.41-.05-5.54-6.11-9.48-4.99,1.85-4.46.84-23.25,3.98-25.52ZM140.63,6.33v17l-11.02-8.47-1.93-2.91c.4-2.29,10.28-6.7,12.95-5.62ZM124.64,14.33c.2-.21,4.1,2.84,4.64,3.35.83.77,1.31,2.18,2.29,3.19,2.02,2.07,5.83,2.93,5.99,6.86l-14.92,5.6c-.46-6.72.11-12.59,2-19ZM120.64,36.33l15.98,31c-7.36-4.17-8.31-11.18-11.58-17.91-1.84-3.78-6.9-6.57-4.4-13.09Z"/>
    <path class="st0" d="M175.89,23.59c13.48,8.47,30.47,14.27,44.13,22.84,2.14,1.08,1.7,4.49,2.84,5.67,2.88,2.98,11.08,1.91,9.59-5.04-1.6-7.5-7.18-2.14-10.83-3.14-6.23-1.71-22.83-12.41-30.11-15.97-1.79-.88-16.25-8.3-16.87-7.62-.82.88-.2,2.35,1.25,3.26Z"/>
  </g>
</svg>